<svg width="512" height="512" viewBox="0 0 512 512" fill="none" xmlns="http://www.w3.org/2000/svg">
	<path
		d="M397.934 161.777C398.924 162.749 399.914 163.722 400.933 164.724C401.76 165.533 402.586 166.342 403.438 167.176C419.932 184.636 428.158 208.61 431.273 231.98C431.989 232.105 432.706 232.231 433.444 232.36C459.347 236.976 481.931 243.801 498.435 265.655C506.171 277.091 510.834 289.391 511.74 303.193C511.842 304.542 511.842 304.542 511.946 305.918C512.312 314.446 510.81 322.903 507.782 330.887C503.825 333.524 503.825 333.524 500.883 333.411C495.919 331.773 491.891 328.988 487.583 326.106C451.333 302.735 407.352 295.431 364.905 301.05C363.544 301.216 362.182 301.383 360.78 301.555C352.209 302.652 344.488 304.419 336.296 307.149C334.817 307.292 333.338 307.435 331.813 307.582C323.967 308.515 316.597 311.034 309.089 313.413C307.446 313.927 305.804 314.441 304.111 314.971C291.083 319.076 278.167 323.493 265.257 327.953C195.216 352.146 195.216 352.146 165.058 352.646C163.651 352.683 163.651 352.683 162.217 352.72C153.801 352.617 146.786 349.707 140.736 343.827C137.641 338.853 135.409 333.642 133.151 328.249C132.716 327.379 132.281 326.508 131.832 325.612C129.871 301.703 132.942 280.612 147.94 261.168C153.489 254.787 159.192 249.936 166.129 245.168C166.782 243.209 166.782 243.209 167.449 241.211C168.319 241.647 169.19 242.082 170.087 242.53C172.9 241.621 175.671 240.583 178.414 239.481C179.905 238.887 181.396 238.294 182.933 237.683C185.426 236.671 187.906 235.622 190.343 234.479C195.367 232.78 200.437 232.416 205.703 231.98C205.849 231.108 205.995 230.236 206.146 229.338C206.811 225.408 207.493 221.482 208.176 217.556C208.406 216.184 208.636 214.811 208.872 213.396C209.102 212.092 209.331 210.787 209.568 209.443C209.775 208.234 209.982 207.026 210.196 205.78C210.454 204.852 210.713 203.924 210.98 202.968C211.85 202.532 212.721 202.097 213.618 201.649C213.807 200.702 213.995 199.755 214.19 198.779C218.157 179.005 236.099 161.181 251.965 150.001C297.412 120.77 358.236 124.469 397.934 161.777Z"
		fill="#E3EBF0"
	/>
	<path
		d="M390.668 317.156C394.583 317.206 398.497 317.211 402.412 317.21C404.918 317.223 407.424 317.238 409.93 317.256C411.092 317.259 412.255 317.262 413.452 317.265C415.061 317.29 415.061 317.29 416.702 317.316C418.11 317.331 418.11 317.331 419.546 317.347C422.039 317.699 422.039 317.699 425.997 320.337C429.237 321.206 432.455 321.99 435.725 322.727C454.459 327.234 485.681 336.243 497.229 353.306C497.636 356.706 497.636 356.706 497.229 359.899C493.804 363.324 491.924 363.078 487.145 363.521C485.624 363.673 484.103 363.825 482.536 363.982C480.937 364.131 479.337 364.279 477.69 364.433C438.072 368.121 407.447 382.531 375.023 404.481C357.691 416.202 339.394 426.162 320.467 435.068C319.631 435.466 318.794 435.864 317.933 436.273C301.183 444.099 283.564 448.371 265.639 452.68C262.446 453.409 262.446 453.409 259.787 454.85C257.551 454.969 255.309 455.005 253.07 454.999C250.971 454.999 250.971 454.999 248.829 454.999C247.313 454.992 245.798 454.986 244.236 454.979C241.914 454.976 241.914 454.976 239.545 454.973C234.585 454.965 229.625 454.949 224.666 454.932C221.309 454.926 217.953 454.92 214.597 454.914C206.356 454.9 198.115 454.877 189.874 454.85C189.874 453.979 189.874 453.109 189.874 452.212C187.966 452.296 187.966 452.296 186.019 452.382C179.919 452.372 174.32 451.009 168.438 449.492C167.283 449.195 166.128 448.898 164.938 448.591C122.845 437.399 87.0918 415.796 55.3232 386.275C54.4458 385.469 53.5683 384.663 52.6643 383.833C37.5945 369.441 24.3056 351.22 15.7495 332.206C16.1617 328.414 16.1617 328.414 17.0686 325.612C21.026 324.293 21.026 324.293 23.32 325.308C24.5795 326.129 24.5795 326.129 25.8645 326.967C26.8145 327.571 27.7645 328.176 28.7433 328.8C29.7607 329.461 30.7781 330.123 31.8263 330.804C85.4708 364.586 145.514 376.66 207.646 363.253C221.247 360.148 234.601 356.137 247.915 351.987C247.48 351.117 247.044 350.246 246.596 349.349C248.12 349.285 249.643 349.22 251.213 349.154C260.116 348.157 268.304 344.787 276.646 341.694C291.244 336.3 305.89 331.141 320.879 326.931C322.045 326.596 323.21 326.262 324.411 325.918C328.356 324.843 332.312 323.891 336.296 322.974C337.722 322.641 337.722 322.641 339.177 322.3C356.444 318.35 372.973 316.925 390.668 317.156Z"
		fill="#DAE4EB"
	/>
	<path
		d="M163.079 143.129C164.355 143.128 165.63 143.128 166.943 143.127C177.238 143.285 185.554 145.107 195.151 148.899C196.108 149.128 197.065 149.358 198.052 149.594C201.803 150.579 204.069 152.999 207.023 155.493C208.515 156.589 208.515 156.589 210.037 157.708C211.11 158.5 212.183 159.292 213.289 160.108C214.316 160.856 215.343 161.604 216.401 162.375C219.237 165.046 219.699 166.205 220.214 169.999C218.717 173.649 217.142 177.05 215.35 180.549C206.955 196.933 206.955 196.933 204.384 214.836C203.514 214.836 202.643 214.836 201.746 214.836C201.556 216.305 201.365 217.774 201.169 219.287C200.427 224.068 200.427 224.068 199.108 226.705C195.756 227.509 192.432 228.198 189.05 228.848C177.191 231.352 167.05 235.944 156.896 242.53C156.461 243.401 156.025 244.271 155.577 245.168C156.883 245.821 156.883 245.821 158.215 246.487C157.78 247.357 157.345 248.227 156.896 249.124C155.59 249.559 154.284 249.994 152.939 250.443C152.503 249.137 152.068 247.832 151.62 246.487C149.684 248.314 147.763 250.158 145.848 252.009C144.777 253.034 143.706 254.059 142.602 255.115C139.714 258.393 138.682 260.941 137.109 264.949C135.361 266.718 133.602 268.476 131.833 270.224C129.763 273.87 127.944 277.589 126.108 281.356C123.585 285.243 121.544 286.826 117.322 288.687C106.187 285.956 99.1308 277.154 93.3048 267.716C82.2068 248.714 78.5924 228.987 82.6233 207.254C83.8303 203.035 85.2712 199.094 86.9826 195.055C87.7758 193.074 87.7758 193.074 88.5851 191.053C97.5432 170.935 114.879 156.419 134.734 147.59C144.336 144.136 152.931 143.114 163.079 143.129Z"
		fill="#FCE9BB"
	/>
	<path
		d="M163.079 143.129C164.354 143.128 165.629 143.128 166.943 143.127C177.238 143.285 185.553 145.107 195.15 148.899C196.108 149.128 197.065 149.358 198.051 149.594C201.803 150.579 204.069 152.999 207.022 155.493C208.515 156.589 208.515 156.589 210.037 157.708C211.11 158.5 212.183 159.292 213.288 160.108C214.315 160.856 215.342 161.604 216.401 162.375C219.194 165.006 219.966 166.197 220.214 169.999C219.42 172.775 219.42 172.775 218.07 175.521C217.645 176.437 217.22 177.354 216.782 178.298C214.937 180.549 214.937 180.549 211.871 181.826C206.988 181.883 205.233 180.077 201.499 177.005C190.576 168.049 179.749 165.058 165.8 165.218C163.809 165.236 163.809 165.236 161.777 165.255C145.581 165.753 133.214 171.08 121.522 182.558C109.326 196.386 103.083 211.659 103.714 230.152C104.888 242.719 108.995 255.436 118.229 264.496C119.96 266.268 119.96 266.268 119.96 268.905C120.777 269.313 121.593 269.721 122.434 270.142C124.248 271.048 126.061 271.955 127.875 272.862C127.279 279.263 125.775 282.741 121.28 287.368C116.737 288.882 114.908 288.3 110.665 286.286C96.2319 277.571 86.8746 259.287 82.5303 243.427C79.7341 226.968 80.4288 210.52 86.9823 195.055C87.7756 193.074 87.7756 193.074 88.5849 191.053C97.543 170.935 114.879 156.419 134.734 147.59C144.336 144.136 152.93 143.114 163.079 143.129Z"
		fill="#FAD89A"
	/>
	<path
		d="M169.84 60.7072C175.158 69.1026 173.017 83.6025 173.055 93.0991C173.082 94.8203 173.11 96.5415 173.138 98.3148C173.144 99.9714 173.151 101.628 173.158 103.335C173.177 105.586 173.177 105.586 173.196 107.882C172.671 112.444 171.462 114.888 168.768 118.568C165.414 121.111 163.777 121.217 159.534 121.04C155 119.718 153.212 118.277 150.3 114.611C148.732 109.906 148.742 105.592 148.713 100.692C148.706 99.7182 148.698 98.7442 148.69 97.7407C148.678 95.6812 148.669 93.6216 148.664 91.562C148.652 88.4216 148.611 85.2823 148.569 82.1421C148.56 80.1382 148.553 78.1343 148.548 76.1304C148.532 75.1961 148.516 74.2618 148.499 73.2991C148.525 67.4897 149.369 63.8407 152.939 59.2236C159.18 55.345 163.851 56.9912 169.84 60.7072Z"
		fill="#F9D79A"
	/>
	<path
		d="M61.9191 105.38C63.225 106.25 64.531 107.121 65.8765 108.018C65.8765 108.888 65.8765 109.758 65.8765 110.655C66.7471 110.655 67.6177 110.655 68.5147 110.655C70.2358 112.407 70.2358 112.407 72.3072 114.941C77.3223 120.868 82.7512 126.285 88.3009 131.705C94.6706 137.969 94.6706 137.969 95.3918 143.377C94.8972 147.58 94.8972 147.58 92.094 151.289C87.7226 154.614 85.8885 155.816 80.3868 155.493C73.8637 151.834 68.1889 146.554 63.2382 140.986C63.2382 140.116 63.2382 139.246 63.2382 138.349C62.4645 138.017 61.6908 137.686 60.8937 137.344C54.2484 133.643 47.7003 125.524 44.7705 118.568C44.8654 113.921 45.5985 111.401 48.1508 107.523C52.9794 104.305 56.1654 104.832 61.9191 105.38Z"
		fill="#F9D799"
	/>
	<path
		d="M32.9809 206.594C34.5257 206.567 36.0706 206.54 37.6622 206.512C39.1527 206.505 40.6431 206.498 42.1787 206.491C43.5306 206.479 44.8826 206.467 46.2755 206.454C51.898 207.155 55.3315 209.569 59.2809 213.518C60.3383 222.729 60.3383 222.729 56.576 227.491C51.8159 231.37 48.3469 231.602 42.4621 231.491C41.4916 231.494 40.5211 231.497 39.5211 231.501C37.4767 231.499 35.4322 231.482 33.388 231.449C30.2689 231.403 27.1548 231.421 24.0356 231.447C22.0432 231.438 20.0507 231.425 18.0583 231.408C16.6689 231.418 16.6689 231.418 15.2513 231.428C8.93312 231.278 5.66227 229.882 1.23952 225.386C-0.663149 220.869 -0.234682 219.188 1.5693 214.589C3.87777 210.88 3.87777 210.88 7.83513 208.243C16.154 206.428 24.5064 206.632 32.9809 206.594Z"
		fill="#F9D89A"
	/>
</svg>
