<svg width="1em" height="1em" viewBox="0 0 512 512" fill="currentColor" xmlns="http://www.w3.org/2000/svg">
    <path d="M71.1754 8.23726C138.473 41.8147 205.367 75.2759 272.262 108.738C343.599 144.422 414.917 180.144 486.286 215.765C503.084 224.15 512.541 237.274 512.5 256.233C512.459 275.224 502.783 288.188 486.022 296.556C364.765 357.096 243.548 417.716 122.321 478.316C103.315 487.817 84.3706 497.442 65.312 506.835C37.8371 520.376 8.18519 506.269 1.42469 476.469C-0.785174 466.728 1.86421 457.364 4.22048 448.002C17.9711 393.37 31.7373 338.74 45.298 284.06C46.1593 280.588 47.5215 279.74 50.8045 279.456C73.7493 277.471 96.6711 275.223 119.607 273.136C141.808 271.115 164.023 269.24 186.222 267.199C204.349 265.532 222.46 263.687 240.583 261.972C257.411 260.38 274.247 258.861 291.077 257.285C291.904 257.208 292.71 256.898 293.65 255.401C290.759 254.924 287.885 254.263 284.975 253.999C246.678 250.532 208.369 247.202 170.078 243.673C135.86 240.519 101.662 237.146 67.4514 233.911C61.7183 233.369 55.9704 232.911 50.2186 232.669C47.3527 232.548 46.1341 231.588 45.4 228.619C30.9461 170.166 16.1809 111.788 1.87372 53.2988C-2.22548 36.5408 2.95695 21.8575 15.9807 10.7294C29.1582 -0.530051 44.4285 -2.83452 60.7374 3.37697C64.1846 4.6899 67.4324 6.52616 71.1754 8.23726Z" />
</svg>
